# xmcd
#
# Track frame offsets:
#	150
#	16943
#	31739
#
# Disc length: 616 seconds
#
# Revision: 0
# Processed by: cddbd v1.5PL3 Copyright (c) Steve Scherf et al.
# Submitted via: audiograbber 1.83.01
#
DISCID=14026603
DTITLE=Deadbeat Radicals - Believe (Org-An-Ised Single Series #21)
DYEAR=1900
DGENRE=Indie
TTITLE0=Believe
TTITLE1=Strange Thing
TTITLE2=Cosmonaut
EXTD=
EXTT0=
EXTT1=
EXTT2=
PLAYORDER=
